<svg id="visual" viewBox="0 0 900 600" width="900" height="600" xmlns="http://www.w3.org/2000/svg" xmlns:xlink="http://www.w3.org/1999/xlink" version="1.1"><rect x="0" y="0" width="900" height="600" fill="#f4f7f9"></rect><path d="M0 270L25 259.3C50 248.7 100 227.3 150 233.2C200 239 250 272 300 260.2C350 248.3 400 191.7 450 179.2C500 166.7 550 198.3 600 222.3C650 246.3 700 262.7 750 260.2C800 257.7 850 236.3 875 225.7L900 215L900 601L875 601C850 601 800 601 750 601C700 601 650 601 600 601C550 601 500 601 450 601C400 601 350 601 300 601C250 601 200 601 150 601C100 601 50 601 25 601L0 601Z" fill="#c765c7"></path><path d="M0 291L25 305.2C50 319.3 100 347.7 150 352C200 356.3 250 336.7 300 325.5C350 314.3 400 311.7 450 294.2C500 276.7 550 244.3 600 249.3C650 254.3 700 296.7 750 317.2C800 337.7 850 336.3 875 335.7L900 335L900 601L875 601C850 601 800 601 750 601C700 601 650 601 600 601C550 601 500 601 450 601C400 601 350 601 300 601C250 601 200 601 150 601C100 601 50 601 25 601L0 601Z" fill="#b360c6"></path><path d="M0 305L25 321.2C50 337.3 100 369.7 150 364.7C200 359.7 250 317.3 300 298.3C350 279.3 400 283.7 450 297.3C500 311 550 334 600 344.3C650 354.7 700 352.3 750 356.2C800 360 850 370 875 375L900 380L900 601L875 601C850 601 800 601 750 601C700 601 650 601 600 601C550 601 500 601 450 601C400 601 350 601 300 601C250 601 200 601 150 601C100 601 50 601 25 601L0 601Z" fill="#9d5bc4"></path><path d="M0 399L25 405C50 411 100 423 150 429.2C200 435.3 250 435.7 300 427.2C350 418.7 400 401.3 450 388.8C500 376.3 550 368.7 600 377.7C650 386.7 700 412.3 750 417.7C800 423 850 408 875 400.5L900 393L900 601L875 601C850 601 800 601 750 601C700 601 650 601 600 601C550 601 500 601 450 601C400 601 350 601 300 601C250 601 200 601 150 601C100 601 50 601 25 601L0 601Z" fill="#8657c2"></path><path d="M0 491L25 486.7C50 482.3 100 473.7 150 473.5C200 473.3 250 481.7 300 485.8C350 490 400 490 450 480C500 470 550 450 600 449C650 448 700 466 750 478.2C800 490.3 850 496.7 875 499.8L900 503L900 601L875 601C850 601 800 601 750 601C700 601 650 601 600 601C550 601 500 601 450 601C400 601 350 601 300 601C250 601 200 601 150 601C100 601 50 601 25 601L0 601Z" fill="#6d53bf"></path><path d="M0 562L25 562.5C50 563 100 564 150 551C200 538 250 511 300 505.3C350 499.7 400 515.3 450 523.8C500 532.3 550 533.7 600 538.3C650 543 700 551 750 542C800 533 850 507 875 494L900 481L900 601L875 601C850 601 800 601 750 601C700 601 650 601 600 601C550 601 500 601 450 601C400 601 350 601 300 601C250 601 200 601 150 601C100 601 50 601 25 601L0 601Z" fill="#5050bb"></path></svg>