<?xml version="1.0" standalone="no"?>
<svg xmlns:xlink="http://www.w3.org/1999/xlink" id="wave" style="transform:rotate(0deg); transition: 0.3s" viewBox="0 0 1440 240" version="1.1" xmlns="http://www.w3.org/2000/svg"><defs><linearGradient id="sw-gradient-0" x1="0" x2="0" y1="1" y2="0"><stop stop-color="rgba(243, 106, 62, 1)" offset="0%"/><stop stop-color="rgba(255, 179, 11, 1)" offset="100%"/></linearGradient></defs><path style="transform:translate(0, 0px); opacity:1" fill="url(#sw-gradient-0)" d="M0,144L30,128C60,112,120,80,180,72C240,64,300,80,360,84C420,88,480,80,540,88C600,96,660,120,720,112C780,104,840,64,900,40C960,16,1020,8,1080,28C1140,48,1200,96,1260,108C1320,120,1380,96,1440,92C1500,88,1560,104,1620,112C1680,120,1740,120,1800,124C1860,128,1920,136,1980,116C2040,96,2100,48,2160,56C2220,64,2280,128,2340,132C2400,136,2460,80,2520,64C2580,48,2640,72,2700,92C2760,112,2820,128,2880,132C2940,136,3000,128,3060,104C3120,80,3180,40,3240,44C3300,48,3360,96,3420,128C3480,160,3540,176,3600,164C3660,152,3720,112,3780,80C3840,48,3900,24,3960,32C4020,40,4080,80,4140,108C4200,136,4260,152,4290,160L4320,168L4320,240L4290,240C4260,240,4200,240,4140,240C4080,240,4020,240,3960,240C3900,240,3840,240,3780,240C3720,240,3660,240,3600,240C3540,240,3480,240,3420,240C3360,240,3300,240,3240,240C3180,240,3120,240,3060,240C3000,240,2940,240,2880,240C2820,240,2760,240,2700,240C2640,240,2580,240,2520,240C2460,240,2400,240,2340,240C2280,240,2220,240,2160,240C2100,240,2040,240,1980,240C1920,240,1860,240,1800,240C1740,240,1680,240,1620,240C1560,240,1500,240,1440,240C1380,240,1320,240,1260,240C1200,240,1140,240,1080,240C1020,240,960,240,900,240C840,240,780,240,720,240C660,240,600,240,540,240C480,240,420,240,360,240C300,240,240,240,180,240C120,240,60,240,30,240L0,240Z"/></svg>